<svg width="458" height="222" viewBox="0 0 458 222" fill="none" xmlns="http://www.w3.org/2000/svg">
<mask id="mask0" mask-type="alpha" maskUnits="userSpaceOnUse" x="0" y="0" width="458" height="222">
<rect width="458" height="222" fill="#C4C4C4"/>
</mask>
<g mask="url(#mask0)">
<path d="M10.8964 83.7272C9.60719 83.232 8.16078 83.875 7.66577 85.1635L-0.400991 106.161C-0.896008 107.45 -0.252179 108.896 1.03704 109.391C2.32626 109.886 3.77267 109.243 4.26768 107.955L11.4381 89.2902L30.1128 96.4645C31.4021 96.9598 32.8485 96.3167 33.3435 95.0282C33.8385 93.7397 33.1947 92.2936 31.9055 91.7983L10.8964 83.7272ZM443.069 5.52334C442.156 4.48725 440.576 4.38682 439.54 5.29902L422.655 20.1643C421.618 21.0765 421.519 22.6559 422.431 23.692C423.344 24.7281 424.924 24.8285 425.961 23.9163L440.97 10.7027L454.194 25.7108C455.107 26.7469 456.687 26.8473 457.723 25.9351C458.76 25.0229 458.859 23.4435 457.947 22.4074L443.069 5.52334ZM306.265 196.749C193.645 246.819 62.0341 196.784 12.2845 85.0447L7.7157 87.0759C58.6023 201.369 193.187 252.494 308.299 201.317L306.265 196.749ZM438.698 7.01642C433.638 87.0102 385.04 161.727 306.265 196.749L308.299 201.317C388.828 165.515 438.515 89.1248 443.689 7.33365L438.698 7.01642Z" fill="url(#paint0_linear)"/>
</g>
<defs>
<linearGradient id="paint0_linear" x1="444.818" y1="15.3171" x2="16.0761" y2="91.3436" gradientUnits="userSpaceOnUse">
<stop stop-color="#FFA0EA"/>
<stop offset="0.505208" stop-color="#00C2FF"/>
<stop offset="1" stop-color="#6041FF"/>
</linearGradient>
</defs>
</svg>