<svg width="759" height="453" viewBox="0 0 759 453" fill="none" xmlns="http://www.w3.org/2000/svg">
<path d="M409.908 217.649L411.39 217.881L411.39 217.881L409.908 217.649ZM728.481 180.389C728.425 179.563 727.71 178.938 726.884 178.994L713.414 179.904C712.588 179.96 711.963 180.675 712.019 181.502C712.075 182.328 712.79 182.953 713.617 182.897L725.589 182.088L726.398 194.061C726.454 194.887 727.169 195.512 727.996 195.456C728.822 195.401 729.447 194.685 729.391 193.859L728.481 180.389ZM79.2517 451.574C78.4347 451.712 77.8836 452.485 78.0207 453.302C78.1579 454.119 78.9313 454.67 79.7483 454.533L79.2517 451.574ZM411.39 217.881C419.485 166.259 395.974 128.255 365.429 117.424C350.148 112.006 333.214 113.456 317.885 123.362C302.58 133.254 288.99 151.496 280.127 179.475L282.987 180.381C291.704 152.861 304.952 135.293 319.513 125.882C334.051 116.486 350.012 115.141 364.427 120.252C393.274 130.481 416.358 166.836 408.426 217.416L411.39 217.881ZM280.127 179.475C271.198 207.661 274.984 244.57 290.527 278.341C306.082 312.139 333.49 342.964 372.027 358.875C449.229 390.749 570.03 362.47 728.114 181.477L725.855 179.504C567.978 360.259 448.485 387.197 373.172 356.102C335.453 340.529 308.549 310.323 293.252 277.086C277.942 243.822 274.335 207.693 282.987 180.381L280.127 179.475ZM79.7483 454.533C170.978 439.22 250.485 401.44 308.869 356.852C367.187 312.313 404.661 260.792 411.39 217.881L408.426 217.416C401.874 259.203 365.123 310.114 307.048 354.467C249.038 398.771 169.982 436.345 79.2517 451.574L79.7483 454.533Z" fill="url(#paint0_linear)"/>
<defs>
<linearGradient id="paint0_linear" x1="727.43" y1="190.245" x2="67" y2="459" gradientUnits="userSpaceOnUse">
<stop stop-color="#FFA0EA"/>
<stop offset="0.505208" stop-color="#00C2FF"/>
<stop offset="0.788674" stop-color="#5B48FF"/>
</linearGradient>
</defs>
</svg>